SplineFontDB: 3.2
FontName: ZameroSans-Bold
FullName: Zamero Sans Bold
FamilyName: Zamero Sans
Weight: Bold
Copyright: Copyright (c) 2024, Zamero Type Foundry
UComments: "2024-1-17: Created with FontForge (http://fontforge.org)"
Version: 001.000
ItalicAngle: 0
UnderlinePosition: -100
UnderlineWidth: 50
Ascent: 800
Descent: 200
InvalidEm: 0
LayerCount: 2
Layer: 0 0 "Back" 1
Layer: 1 0 "Fore" 0
XUID: [1021 474 1118879153 20760]
StyleMap: 0x0000
FSType: 0
OS2Version: 0
OS2_WeightWidthSlopeOnly: 0
OS2_UseTypoMetrics: 1
CreationTime: 1705525712
ModificationTime: 1705595196
OS2TypoAscent: 0
OS2TypoAOffset: 1
OS2TypoDescent: 0
OS2TypoDOffset: 1
OS2TypoLinegap: 90
OS2WinAscent: 0
OS2WinAOffset: 1
OS2WinDescent: 0
OS2WinDOffset: 1
HheadAscent: 0
HheadAOffset: 1
HheadDescent: 0
HheadDOffset: 1
Lookup: 258 0 0 "'kern' Horizontal Kerning in Latin lookup 0" { "'kern' Horizontal Kerning in Latin lookup 0-1" [150,15,2] } ['kern' ('DFLT' <'dflt' > 'latn' <'dflt' > ) ]
MarkAttachClasses: 1
DEI: 91125
Encoding: UnicodeBmp
UnicodeInterp: none
NameList: AGL For New Fonts
DisplaySize: -48
AntiAlias: 1
FitToEm: 0
WinInfo: 0 27 9
BeginPrivate: 0
EndPrivate
Grid
-1000 751.001953125 m 4
 2000 751.001953125 l 1028
  Named: "Ascender Height"
-1000 510.93359375 m 0
 2000 510.93359375 l 1024
  Named: "X-Height Overshoot"
-1000 501.010742188 m 0
 2000 501.010742188 l 1024
  Named: "X-Height"
-1000 -179.994140625 m 0
 2000 -179.994140625 l 1024
  Named: "Descender Height"
-1000 -9.99821472168 m 0
 2000 -9.99821472168 l 1024
  Named: "Bottom Overshoot"
-1000 738.992409446 m 0
 2000 738.992409446 l 1024
  Named: "Overshoot Cap Height"
-1000 731.007568359 m 0
 2000 731.007568359 l 1024
  Named: "Cap Height"
EndSplineSet
BeginChars: 65536 95

StartChar: I
Encoding: 73 73 0
Width: 434
Flags: W
HStem: 0 145<30 132.5 301.5 404> 30 115<132.5 301.5> 585 146<30 132.5 301.5 404> 585 116<132.5 301.5>
VStem: 30 374<0 145 585 731> 132.5 169<30 701>
LayerCount: 2
Fore
SplineSet
404 0 m 1x88
 30 0 l 1
 30 145 l 1
 404 145 l 1
 404 0 l 1x88
404 585 m 1x28
 30 585 l 1
 30 731 l 1
 404 731 l 1
 404 585 l 1x28
132.5 30 m 5x54
 132.5 701 l 5
 301.5 701 l 5
 301.5 30 l 5
 132.5 30 l 5x54
EndSplineSet
EndChar

StartChar: O
Encoding: 79 79 1
Width: 797
Flags: W
HStem: -9.99805 152.462<299.632 498.145> 586.659 152.462<299.632 498.145>
VStem: 35 164.849<245.278 483.845> 597.929 164.849<245.278 483.845>
LayerCount: 2
Fore
SplineSet
199.848632812 364.561523438 m 4
 199.848632812 231.379882812 259.459960938 142.463867188 398.888671875 142.463867188 c 4
 538.317382812 142.463867188 597.928710938 231.379882812 597.928710938 364.561523438 c 4
 597.928710938 497.743164062 538.317382812 586.659179688 398.888671875 586.659179688 c 4
 259.459960938 586.659179688 199.848632812 497.743164062 199.848632812 364.561523438 c 4
35 364.561523438 m 4
 35 591.206054688 172.688476562 739.12109375 398.888671875 739.12109375 c 4
 625.088867188 739.12109375 762.77734375 591.206054688 762.77734375 364.561523438 c 4
 762.77734375 137.916992188 625.088867188 -9.998046875 398.888671875 -9.998046875 c 4
 172.688476562 -9.998046875 35 137.916992188 35 364.561523438 c 4
EndSplineSet
EndChar

StartChar: H
Encoding: 72 72 2
Width: 719
Flags: W
HStem: 0 21G<55 224 495 664> 285 146<140 564> 711.008 20G<55 224 495 664>
VStem: 55 169<0 285 431 731.008> 140 84<285 431> 495 169<0 285 431 731.008> 495 69<285 431>
LayerCount: 2
Fore
SplineSet
564 285 m 1xea
 140 285 l 1
 140 431 l 1
 564 431 l 1
 564 285 l 1xea
495 0 m 1xe4
 495 731.0078125 l 1
 664 731.0078125 l 1
 664 0 l 1
 495 0 l 1xe4
55 0 m 5xf0
 55 731.0078125 l 5
 224 731.0078125 l 5
 224 0 l 5
 55 0 l 5xf0
EndSplineSet
EndChar

StartChar: V
Encoding: 86 86 4
Width: 699
Flags: W
HStem: 0 21G<238.434 470.293> 711.008 20G<5 190.054 509.239 694>
LayerCount: 2
Fore
SplineSet
245 0 m 1
 5 731.0078125 l 1
 184 731.0078125 l 1
 353.606445312 170.694335938 l 1
 515 731.0078125 l 1
 694 731.0078125 l 1
 464 0 l 1
 245 0 l 1
EndSplineSet
EndChar

StartChar: D
Encoding: 68 68 5
Width: 727
Flags: W
HStem: 0 150.352<224 426.015> 580.65 150.358<224 424.388>
VStem: 55 169<150.352 580.65> 527.929 164.849<249.212 480.156>
LayerCount: 2
Fore
SplineSet
55 0 m 1
 55 731.0078125 l 1
 318.888671875 731.0078125 l 2
 515.609624971 731.0078125 692.77734375 631.206054688 692.77734375 364.561523438 c 0
 692.77734375 97.9169921875 514.458235806 -2.2676305278e-14 318.888671875 0 c 2
 55 0 l 1
224 580.649809292 m 1
 224 150.352026119 l 1
 298.888671875 150.461914062 l 2
 430.013969929 150.604492188 527.928710938 188.959960938 527.928710938 364.561523438 c 4
 527.928710938 540.163085938 430.013969929 580.411132812 298.888671875 580.545898438 c 2
 224 580.649809292 l 1
EndSplineSet
EndChar

StartChar: U
Encoding: 85 85 6
Width: 719
Flags: W
HStem: -9.99805 152.462<270.583 445.194> 711.008 20G<55 224 491.777 660.777>
VStem: 55 169<191.346 731.008> 491.777 169<191.346 731.008>
LayerCount: 2
Fore
SplineSet
357.888671875 -9.998046875 m 0
 131.688476562 -9.998046875 55 102.375640235 55 274.561523438 c 6
 55 731.0078125 l 1
 224 731.0078125 l 1
 224 304.561523438 l 6
 224 207.359093816 242.459960938 142.463867188 357.888671875 142.463867188 c 0
 473.317382812 142.463867188 491.77734375 207.359093816 491.77734375 304.561523438 c 6
 491.77734375 731.0078125 l 1
 660.77734375 731.0078125 l 1
 660.77734375 274.561523438 l 6
 660.77734375 102.375640235 584.088867188 -9.998046875 357.888671875 -9.998046875 c 0
EndSplineSet
EndChar

StartChar: L
Encoding: 76 76 7
Width: 568
Flags: W
HStem: 0 146<224 544> 711.008 20G<55 224>
VStem: 55 169<146 731.008>
LayerCount: 2
Fore
SplineSet
224 146 m 1
 544 146 l 1
 544 0 l 1
 55 0 l 1
 55 731.0078125 l 1
 224 731.0078125 l 1
 224 146 l 1
EndSplineSet
EndChar

StartChar: F
Encoding: 70 70 8
Width: 574
Flags: W
HStem: 0 21G<55 224> 245 146<140 484> 585.008 146<224 544>
VStem: 55 169<0 245 391 585.008> 140 84<245 391>
LayerCount: 2
Fore
SplineSet
484 245 m 5xe8
 140 245 l 5
 140 391 l 1
 484 391 l 1
 484 245 l 5xe8
224 585.0078125 m 1xf0
 224 0 l 1
 55 0 l 1
 55 731.0078125 l 1
 544 731.0078125 l 1
 544 585.0078125 l 1
 224 585.0078125 l 1xf0
EndSplineSet
EndChar

StartChar: C
Encoding: 67 67 9
Width: 663
Flags: W
HStem: -9.99805 152.462<309.505 545.068> 586.659 152.462<309.505 527.316>
VStem: 35 164.849<252.181 476.942>
LayerCount: 2
Fore
SplineSet
35 364.561523438 m 0
 35 591.206054688 169.337141966 739.12109375 405.888671875 739.12109375 c 4
 571.571008916 739.12109375 639.681640625 672.891601562 639.681640625 672.891601562 c 1
 578.35546875 535.138671875 l 1
 578.35546875 535.138671875 523.702171812 586.659179688 412.888671875 586.659179688 c 4
 263.652879094 586.659179688 199.848632812 497.743164062 199.848632812 364.561523438 c 0
 199.848632812 231.379882812 263.652879094 142.463867188 412.888671875 142.463867188 c 4
 532.609534501 142.463867188 596.018554688 188.595703125 596.018554688 188.595703125 c 1
 642.827148438 44.595703125 l 1
 642.827148438 44.595703125 570.452460077 -9.998046875 405.888671875 -9.998046875 c 4
 169.337141966 -9.998046875 35 137.916992188 35 364.561523438 c 0
EndSplineSet
EndChar

StartChar: E
Encoding: 69 69 10
Width: 574
Flags: W
HStem: 0 146<224 544> 292 146<140 484> 585.008 146<224 544>
VStem: 140 84<292 438>
LayerCount: 2
Fore
SplineSet
484 292 m 5
 140 292 l 5
 140 438 l 5
 484 438 l 5
 484 292 l 5
224 585.0078125 m 1
 224 146 l 1
 544 146 l 1
 544 0 l 1
 55 0 l 1
 55 731.0078125 l 1
 544 731.0078125 l 1
 544 585.0078125 l 1
 224 585.0078125 l 1
EndSplineSet
EndChar

StartChar: N
Encoding: 78 78 11
Width: 719
Flags: W
HStem: 0 21G<55 214 482.371 664> 711.008 20G<55 236.997 505 664>
VStem: 55 159<0 445.005> 505 159<298.6 731.008>
LayerCount: 2
Fore
SplineSet
55 0 m 1
 55 731.0078125 l 1
 224 731.0078125 l 1
 505 298.599609375 l 5
 505 731.0078125 l 1
 664 731.0078125 l 1
 664 0 l 1
 495 0 l 1
 214 445.004882812 l 1
 214 0 l 1
 55 0 l 1
EndSplineSet
EndChar

StartChar: M
Encoding: 77 77 12
Width: 810
Flags: W
HStem: 0 21G<55 224 586 755> 711.008 20G<55 244.947 565.053 755>
VStem: 55 169<0 445.005> 586 169<0 445.005>
LayerCount: 2
Fore
SplineSet
55 0 m 1
 55 731.0078125 l 1
 234 731.0078125 l 1
 405 418.599609375 l 5
 576 731.0078125 l 1
 755 731.0078125 l 1
 755 0 l 1
 586 0 l 1
 586 445.004882812 l 1
 455 210 l 5
 355 210 l 5
 224 445.004882812 l 1
 224 0 l 1
 55 0 l 1
EndSplineSet
EndChar

StartChar: G
Encoding: 71 71 13
Width: 799
Flags: W
HStem: -9.99805 152.462<297.939 498.498> 286 138<416 536.019 694.827 774> 286 18.5957<536.019 694.827> 586.659 152.462<305.776 530.747>
VStem: 35 164.849<245.278 476.942> 547.481 154.001<187.629 295.199>
LayerCount: 2
Fore
SplineSet
774 286 m 1xdc
 416 286 l 5
 416 424 l 5
 774 424 l 1
 774 286 l 1xdc
35 364.561523438 m 0
 35 591.206054688 176.472284282 739.12109375 408.888671875 739.12109375 c 0
 579.531707116 739.12109375 649.681640625 672.891601562 649.681640625 672.891601562 c 1
 588.35546875 535.138671875 l 1
 588.35546875 535.138671875 529.078004477 586.659179688 408.888671875 586.659179688 c 0
 262.454902478 586.659179688 199.848632812 497.743164062 199.848632812 364.561523438 c 0
 199.848632812 231.379882812 253.455078125 142.463867188 399.888671875 142.463867188 c 0
 505.296875 142.463867188 547.481445312 186.262045972 547.481445312 252 c 0
 547.481445312 288.78559257 536.018554688 304.595703125 536.018554688 304.595703125 c 1
 694.827148438 304.595703125 l 1xbc
 694.827148438 304.595703125 701.482421875 287.591972952 701.482421875 232 c 0
 701.482421875 97.5292153685 604.418945312 -9.998046875 399.888671875 -9.998046875 c 0
 167.47265625 -9.998046875 35 137.916992188 35 364.561523438 c 0
EndSplineSet
EndChar

StartChar: A
Encoding: 65 65 14
Width: 719
Flags: W
HStem: 0 21G<5 190.344 528.352 714> 135 146<162 556> 711.008 20G<257.887 451.387>
LayerCount: 2
Fore
SplineSet
556 135 m 1
 162 135 l 1
 162 281 l 1
 556 281 l 1
 556 135 l 1
444 731.0078125 m 5
 714 0 l 5
 535 0 l 5
 355.393554688 540.313476562 l 5
 184 0 l 5
 5 0 l 5
 265 731.0078125 l 5
 444 731.0078125 l 5
EndSplineSet
EndChar

StartChar: P
Encoding: 80 80 15
Width: 670
Flags: W
HStem: 0 21G<55 224> 224 142.352<164 431.088> 584.649 146.358<224 431.416>
VStem: 55 169<0 224 366.352 584.649> 164 60<224 366.352> 471.929 163.849<403.752 546.496>
LayerCount: 2
Fore
SplineSet
164 224 m 1xec
 164 366.3515625 l 1xec
 332.888671875 366.461914062 l 6
 412.48895039 366.581032774 471.928710938 385.899706784 471.928710938 474.561523438 c 4
 471.928710938 563.982010918 412.488959202 584.43363095 332.888671875 584.545898438 c 6
 224 584.649414062 l 1
 224 0 l 1
 55 0 l 1
 55 731.0078125 l 1xf4
 348.888671875 731.0078125 l 6
 499.834707979 731.0078125 635.77734375 661.164588003 635.77734375 474.561523438 c 4
 635.77734375 291.297915868 498.951235081 224 348.888671875 224 c 6
 164 224 l 1xec
EndSplineSet
EndChar

StartChar: R
Encoding: 82 82 16
Width: 663
Flags: W
HStem: 0 21G<55 224 465.97 641> 256 140.352<164 414.573> 584.649 146.358<224 409.978>
VStem: 55 169<0 256 396.352 584.649> 164 60<256 396.352> 446.929 163.849<189.42 222.529 427.096 550.878>
LayerCount: 2
Fore
SplineSet
164 396.3515625 m 1xec
 318.888671875 396.461914062 l 2
 392.19140625 396.50390625 446.928710938 413.202148438 446.928710938 489.561523438 c 0
 446.928710938 566.786132812 392.19140625 584.486328125 318.888671875 584.545898438 c 2
 224 584.649414062 l 1
 224 0 l 1
 55 0 l 1
 55 731.0078125 l 1xf4
 328.888671875 731.0078125 l 2
 477.204101562 731.0078125 610.77734375 669.334960938 610.77734375 504.561523438 c 0
 610.77734375 374.684570312 510.688476562 336.276367188 510.688476562 336.276367188 c 1
 510.688476562 336.276367188 581.640625 319.546875 604.702148438 195.399414062 c 2
 641 0 l 1
 469 0 l 1
 444 165 l 2
 431.545898438 247.198242188 402.220703125 256 310 256 c 2
 164 256 l 1
 164 396.3515625 l 1xec
EndSplineSet
EndChar

StartChar: T
Encoding: 84 84 17
Width: 614
Flags: W
HStem: 0 21G<222.5 391.5> 585 146<30 222.5 391.5 584> 585 116<222.5 391.5>
VStem: 222.5 169<0 701>
LayerCount: 2
Fore
SplineSet
584 585 m 1xd0
 30 585 l 1
 30 731 l 1
 584 731 l 1
 584 585 l 1xd0
222.5 0 m 5
 222.5 701 l 5
 391.5 701 l 5xb0
 391.5 0 l 5
 222.5 0 l 5
EndSplineSet
EndChar

StartChar: Q
Encoding: 81 81 18
Width: 846
Flags: W
HStem: 0.00195312 152.462<296.355 627.055 688.938 751.618> 586.659 152.462<297.407 500.371>
VStem: 35 164.849<252.42 486.703> 597.929 164.849<254.417 486.703>
LayerCount: 2
Fore
SplineSet
35 369.561523438 m 0
 35 593.18057424 172.688476562 739.12109375 398.888671875 739.12109375 c 0
 625.088867188 739.12109375 762.77734375 593.18057424 762.77734375 369.561523438 c 0
 762.77734375 237 688.938476562 154.598632812 688.938476562 154.598632812 c 1
 745.066464222 154.960177623 814.888671875 159.001953125 814.888671875 159.001953125 c 5
 821.888671875 13.001953125 l 5
 821.888671875 13.001953125 720.413325642 0.001953125 434 0.001953125 c 0
 165.367541758 0.001953125 35 145.942472635 35 369.561523438 c 0
199.848632812 369.561523438 m 0
 199.848632812 239.378150396 259.459960938 152.463867188 398.888671875 152.463867188 c 0
 538.317382812 152.463867188 597.928710938 239.378150396 597.928710938 369.561523438 c 0
 597.928710938 499.744896479 538.317382812 586.659179688 398.888671875 586.659179688 c 0
 259.459960938 586.659179688 199.848632812 499.744896479 199.848632812 369.561523438 c 0
EndSplineSet
EndChar

StartChar: B
Encoding: 66 66 19
Width: 640
Flags: W
HStem: 0 146.46<224 421.972> 294.656 141.695<164 401.529> 584.649 146.358<224 400.225>
VStem: 164 60<294.656 436.352> 422.929 163.849<458.719 560.439> 445.929 163.849<170.562 273.171>
LayerCount: 2
Fore
SplineSet
496.662109375 376.4375 m 1xf8
 496.662109375 376.4375 609.77734375 342.813198592 609.77734375 206.446289062 c 0xf4
 609.77734375 56.225709353 485.197709119 -1.54459778301e-14 345.888671875 0 c 2
 55 0 l 1
 55 731.0078125 l 1
 324.888671875 731.0078125 l 2
 462.6809962 731.0078125 586.77734375 674.782103147 586.77734375 524.561523438 c 0
 586.77734375 408.693422378 496.662109375 376.4375 496.662109375 376.4375 c 1xf8
224 146.46 m 1
 333.888671875 146.461914062 l 2
 397.962334358 146.462742481 445.928710938 160.481816919 445.928710938 221.446289062 c 0xf4
 445.928710938 281.40158586 398.031387966 294.453598187 333.888671875 294.545898438 c 2
 164 294.65625 l 1
 164 436.3515625 l 1
 311.888671875 436.461914062 l 2
 375.458733485 436.593583946 422.928710938 449.60622664 422.928710938 509.561523438 c 0xf8
 422.928710938 570.525995581 375.459011776 584.492809961 311.888671875 584.545898438 c 2
 224 584.649414062 l 1
 224 146.46 l 1
EndSplineSet
EndChar

StartChar: J
Encoding: 74 74 20
Width: 406
Flags: W
HStem: -10 149<22.3017 188.762> 585.008 146<50 208>
VStem: 208 169<161.046 585.008>
LayerCount: 2
Fore
SplineSet
128 139 m 4
 184.32421875 139 208 163.811523438 208 222 c 6
 208 585.0078125 l 1
 50 585.0078125 l 1
 50 731.0078125 l 1
 377 731.0078125 l 1
 377 201 l 6
 377 74.4647758463 317.5 -10 174 -10 c 4
 77.0537109375 -10 10 10 10 10 c 5
 24 154 l 5
 24 154 67.3388671875 139 128 139 c 4
EndSplineSet
EndChar

StartChar: K
Encoding: 75 75 21
Width: 669
Flags: W
HStem: 0 21G<55 224 432.373 659> 711.008 20G<55 224 430.455 649>
VStem: 55 169<0 311 401 731.008> 205 19<311 401>
LayerCount: 2
Fore
SplineSet
448 0 m 5xd0
 205 311 l 5
 205 401 l 5
 445 731.0078125 l 5
 649 731.0078125 l 5
 365 372 l 5
 659 0 l 5
 448 0 l 5xd0
55 0 m 1xe0
 55 731.0078125 l 1
 224 731.0078125 l 1
 224 0 l 1
 55 0 l 1xe0
EndSplineSet
EndChar

StartChar: S
Encoding: 83 83 22
Width: 591
Flags: W
HStem: -10 143.462<136.369 367.935> 594.659 144.462<234.673 440.132>
VStem: 39.627 170.312<475.796 570.777> 392.338 164.182<157.34 250.254>
LayerCount: 2
Fore
SplineSet
287.3828125 287.140625 m 0
 100.6640625 337.666992188 39.626953125 402.697265625 39.626953125 517 c 0
 39.626953125 652.115234375 141.640848021 739.12109375 309.233398438 739.12109375 c 0
 456.921038826 739.12109375 528.745117188 688.891601562 528.745117188 688.891601562 c 1
 486.37109375 552.138671875 l 1
 486.37109375 552.138671875 420.077148438 594.659179688 322.36328125 594.659179688 c 0
 244.8125 594.659179688 209.938476562 567.23046875 209.938476562 523 c 0
 209.938476562 485.005859375 232.010910578 461.201833649 314.997070312 440.081054688 c 0
 500.855910949 392.778185105 556.51953125 328.129882812 556.51953125 212 c 0
 556.51953125 75.1845703125 461.572265625 -10 283.8046875 -10 c 4
 130.188476562 -10 32.81640625 42.2294921875 32.81640625 42.2294921875 c 1
 69.97265625 181.982421875 l 1
 69.97265625 181.982421875 160.142578125 133.461914062 270.696289062 133.461914062 c 0
 353.104492188 133.461914062 392.337890625 157.45703125 392.337890625 204 c 0
 392.337890625 242.108398438 374.83099671 263.477018291 287.3828125 287.140625 c 0
EndSplineSet
EndChar

StartChar: W
Encoding: 87 87 23
Width: 949
Flags: W
HStem: 0 21G<159.65 381.921 561.382 783.514> 711.008 20G<5 187.576 761.358 944>
LayerCount: 2
Fore
SplineSet
164 0 m 5
 5 731.0078125 l 1
 184 731.0078125 l 1
 280.606445312 190.694335938 l 1
 395 671.0078125 l 1
 554 671.0078125 l 1
 666.606445312 190.694335938 l 1
 765 731.0078125 l 1
 944 731.0078125 l 1
 779 0 l 1
 566 0 l 1
 474.5 396.271484375 l 1
 377 0 l 5
 164 0 l 5
EndSplineSet
EndChar

StartChar: X
Encoding: 88 88 24
Width: 689
Flags: W
HStem: 0 21G<10 222.447 466.553 679> 711.008 20G<20 224.606 464.394 669>
VStem: 300 89<311 401>
LayerCount: 2
Fore
SplineSet
211 0 m 1
 10 0 l 1
 236 372 l 1
 20 731.0078125 l 1
 214 731.0078125 l 1
 389 401 l 1
 389 311 l 1
 211 0 l 1
478 0 m 1
 300 311 l 5
 300 401 l 5
 475 731.0078125 l 1
 669 731.0078125 l 1
 453 372 l 1
 679 0 l 1
 478 0 l 1
EndSplineSet
EndChar

StartChar: Y
Encoding: 89 89 25
Width: 689
Flags: W
HStem: 0 21G<260 429> 262 99<266 423> 711.008 20G<20 213.49 475.51 669>
VStem: 260 169<0 361>
LayerCount: 2
Fore
SplineSet
266 262 m 5
 20 731.0078125 l 1
 204 731.0078125 l 1
 344.5 434.916015625 l 1
 485 731.0078125 l 1
 669 731.0078125 l 1
 423 262 l 5
 266 262 l 5
260 0 m 1
 260 361 l 5
 429 361 l 5
 429 0 l 1
 260 0 l 1
EndSplineSet
EndChar

StartChar: Z
Encoding: 90 90 26
Width: 594
Flags: W
HStem: 0 146<243 564> 585 146<40 351>
LayerCount: 2
Fore
SplineSet
564 0 m 5
 30 0 l 5
 30 106 l 5
 351 585 l 5
 40 585 l 5
 40 731 l 5
 554 731 l 5
 554 625 l 5
 243 146 l 5
 564 146 l 5
 564 0 l 5
EndSplineSet
EndChar

StartChar: ampersand
Encoding: 38 38 27
Width: 754
Flags: W
HStem: -10 145.305<581.555 739.024> -10 135.093<211.462 375.333> 598.762 140.23<339.884 495.813>
VStem: 35 150.837<150.262 270.333> 151.551 163.376<471.91 574.316>
LayerCount: 2
Fore
SplineSet
291.267578125 468.821289062 m 1x70
 321.341796875 360.713867188 l 0
 321.341796875 360.713867188 185.836914062 302.410939633 185.836914062 212 c 0
 185.836914062 153.622070312 220.88671875 125.092773438 276.900390625 125.092773438 c 0
 373.332373198 125.092773438 481.302605459 203.140672201 566.25 453.205078125 c 1
 709.538085938 396.8046875 l 1
 581.58984375 121.071289062 446.62890625 -10 275.928710938 -10 c 0
 133.41015625 -10 35 70.9521484375 35 188.185546875 c 0
 35 393.642578125 291.267578125 468.821289062 291.267578125 468.821289062 c 1x70
742.451171875 -4.4453125 m 1
 742.451171875 -4.4453125 721.75 -10 666 -10 c 0
 411.7421875 -10 151.55078125 317.083984375 151.55078125 532 c 0
 151.55078125 667.366210938 240.127773209 738.9921875 387.022460938 738.9921875 c 0
 482.85582644 738.9921875 541.400390625 703.649414062 541.400390625 703.649414062 c 1
 504.5703125 571.848632812 l 5
 504.5703125 571.848632812 470.080874917 598.76171875 411.022460938 598.76171875 c 4
 346.589072261 598.76171875 314.926757812 571.949230964 314.926757812 508 c 0
 314.926757812 374.10099781 494.592359939 135.3046875 670.51171875 135.3046875 c 0xa8
 711.928710938 135.3046875 735.62890625 138.5546875 735.62890625 138.5546875 c 1
 742.451171875 -4.4453125 l 1
EndSplineSet
EndChar

StartChar: i
Encoding: 105 105 28
Width: 269
Flags: W
HStem: 0 21G<55 214> 563.551 186.449<71.8753 197.124>
VStem: 41.8867 185.227<593.738 719.813> 55 159<0 501.011>
LayerCount: 2
Fore
SplineSet
55 0 m 1xd0
 55 501.010742188 l 1
 214 501.010742188 l 1
 214 0 l 1
 55 0 l 1xd0
41.88671875 656.775390625 m 4xe0
 41.88671875 713.252366234 78.3921276895 750 134.499023438 750 c 4
 190.606886418 750 227.11328125 713.252366234 227.11328125 656.775390625 c 4
 227.11328125 600.297394673 190.606886418 563.55078125 134.499023438 563.55078125 c 4
 78.3921276895 563.55078125 41.88671875 600.297394673 41.88671875 656.775390625 c 4xe0
EndSplineSet
EndChar

StartChar: o
Encoding: 111 111 29
Width: 589
Flags: W
HStem: -9.99805 142.462<228.39 360.278> 368.284 142.649<227.441 361.284>
VStem: 35 154.849<169.94 330.841> 399.929 154.849<170.999 329.837>
LayerCount: 2
Fore
SplineSet
189.848632812 253.561523438 m 0
 189.848632812 180.944888001 221.008016301 132.463867188 293.888671875 132.463867188 c 4
 368.170339141 132.463867188 399.928710938 180.944888001 399.928710938 253.561523438 c 0
 399.928710938 322.355367705 368.203681264 368.284179688 294 368.284179688 c 0
 221.041358424 368.284179688 189.848632812 322.355367705 189.848632812 253.561523438 c 0
35 253.561523438 m 0
 35 409.296356709 132.958495509 510.93359375 293.888671875 510.93359375 c 0
 456.062086697 510.93359375 554.77734375 409.296356709 554.77734375 253.561523438 c 0
 554.77734375 94.0826581128 456.062086697 -9.998046875 293.888671875 -9.998046875 c 0
 132.958495509 -9.998046875 35 94.0826581128 35 253.561523438 c 0
EndSplineSet
EndChar

StartChar: n
Encoding: 110 110 30
Width: 595
Flags: W
HStem: 0 21G<55 214 381.777 540.777> 380.284 130.649<250.688 358.686>
VStem: 55 159<0 501.011> 381.777 159<0 353.487>
LayerCount: 2
Fore
SplineSet
214 284 m 4
 149 293.561523438 l 0
 170.874026638 444 222.742126105 510.93359375 352 510.93359375 c 0
 476.666135504 510.93359375 540.77734375 444.084682028 540.77734375 304.561523438 c 2
 540.77734375 0 l 1
 381.77734375 0 l 1
 381.77734375 287.561523438 l 2
 381.77734375 346.298243276 357.098863291 380.284179688 299 380.284179688 c 0
 239.457003096 380.284179688 214 341.737146954 214 284 c 4
55 0 m 1
 55 501.010742188 l 1
 214 501.010742188 l 1
 214 0 l 1
 55 0 l 1
EndSplineSet
EndChar

StartChar: m
Encoding: 109 109 31
Width: 882
Flags: W
HStem: 0 21G<55 214 361.777 520.777 668.555 827.555> 380.284 130.649<245.314 402.303 552.091 709.08> 481.011 20G<55 214>
VStem: 55 159<0 501.011> 361.777 159<0 349.964> 668.555 159<0 361.117>
CounterMasks: 1 1c
LayerCount: 2
Fore
SplineSet
520.77734375 284 m 4xdc
 455.77734375 293.561523438 l 4
 476.57383213 444 525.886852806 510.93359375 648.77734375 510.93359375 c 4
 766.83960757 510.93359375 827.5546875 447.323924219 827.5546875 314.561523438 c 6
 827.5546875 0 l 5
 668.5546875 0 l 5
 668.5546875 297.561523438 l 6
 668.5546875 349.963575762 646.857515614 380.284179688 595.77734375 380.284179688 c 4
 543.239405305 380.284179688 520.77734375 341.737146953 520.77734375 284 c 4xdc
214 284 m 0
 149 293.561523438 l 0
 169.79648838 444 219.109509056 510.93359375 342 510.93359375 c 0
 460.06226382 510.93359375 520.77734375 447.323924219 520.77734375 314.561523438 c 2
 520.77734375 0 l 1
 361.77734375 0 l 1
 361.77734375 297.561523438 l 2
 361.77734375 349.963575762 340.080171864 380.284179688 289 380.284179688 c 0
 236.462061555 380.284179688 214 341.737146954 214 284 c 0
55 0 m 1
 55 501.010742188 l 1
 214 501.010742188 l 1xbc
 214 0 l 1
 55 0 l 1
EndSplineSet
EndChar

StartChar: p
Encoding: 112 112 32
Width: 602
Flags: W
HStem: -180 21G<55 214> -9.99805 136.462<242.444 375.597> 375.284 135.649<252.635 376.762>
VStem: 55 159<-180 501.011> 126.151 87.8486<66.4394 183.562> 151.151 62.8486<283.562 425.747> 414.08 154.849<168.978 335.354>
LayerCount: 2
Fore
SplineSet
55 -180 m 1xf2
 55 501.010742188 l 1
 214 501.010742188 l 1
 214 -180 l 1
 55 -180 l 1xf2
214 213.561523438 m 1
 214 171.128058975 242.164441948 126.463867188 308.040039062 126.463867188 c 0
 382.321706328 126.463867188 414.080078125 177.346966901 414.080078125 253.561523438 c 0
 414.080078125 326.552942322 382.355048451 375.284179688 308.151367188 375.284179688 c 4
 242.197784071 375.284179688 214 338.56333682 214 283.561523438 c 1xf2
 151.151367188 283.561523438 l 1xe6
 151.151367188 425.746590474 227.465663421 510.93359375 345 510.93359375 c 0
 487.240588621 510.93359375 568.928710938 409.296356709 568.928710938 253.561523438 c 0
 568.928710938 94.0826581128 483.456780902 -9.998046875 343.040039062 -9.998046875 c 0
 208.217870276 -9.998046875 126.151367188 66.4393843718 126.151367188 183.561523438 c 1xea
 214 213.561523438 l 1
EndSplineSet
EndChar

StartChar: j
Encoding: 106 106 33
Width: 269
Flags: W
HStem: -200 139<-100.638 37.3453> 563.551 186.449<71.8753 197.124>
VStem: 41.8867 185.227<593.738 719.813> 55 159<-44.8565 501.011>
LayerCount: 2
Fore
SplineSet
55 22 m 6xd0
 55 501.010742188 l 5
 214 501.010742188 l 5
 214 11 l 6
 214 -116 156.25862069 -200 17 -200 c 4
 -59.8476681593 -200 -113 -184 -113 -184 c 5
 -99 -50 l 5
 -99 -50 -65.6624098558 -61 -19 -61 c 4
 33.0999023437 -61 55 -36 55 22 c 6xd0
41.88671875 656.775390625 m 0xe0
 41.88671875 713.252366234 78.3921276895 750 134.499023438 750 c 0
 190.606886418 750 227.11328125 713.252366234 227.11328125 656.775390625 c 0
 227.11328125 600.297394673 190.606886418 563.55078125 134.499023438 563.55078125 c 0
 78.3921276895 563.55078125 41.88671875 600.297394673 41.88671875 656.775390625 c 0xe0
EndSplineSet
EndChar

StartChar: k
Encoding: 107 107 34
Width: 555
Flags: W
HStem: 0 21G<55 214 334.445 545> 731.002 20G<55 214>
VStem: 55 159<0 211 301 751.002> 205 9<211 301>
LayerCount: 2
Fore
SplineSet
348 0 m 1xd0
 205 211 l 1
 205 301 l 1
 345 501.010742188 l 1
 535 501.010742188 l 1
 345 272 l 1
 545 0 l 1
 348 0 l 1xd0
55 0 m 1xe0
 55 751.001953125 l 5
 214 751.001953125 l 5
 214 0 l 1
 55 0 l 1xe0
EndSplineSet
EndChar

StartChar: l
Encoding: 108 108 35
Width: 381
Flags: W
HStem: -10.0088 139<223.889 339.371> 731.002 20G<55 214>
VStem: 55 159<142.109 751.002>
LayerCount: 2
Fore
SplineSet
214 191.991210938 m 2
 214 147.967114552 232.940625 128.991210938 278 128.991210938 c 0
 312.996807392 128.991210938 338 139.991210938 338 139.991210938 c 1
 352 5.9912109375 l 1
 352 5.9912109375 307.024949981 -10.0087890625 242 -10.0087890625 c 0
 109.810344827 -10.0087890625 55 58.0670403214 55 160.991210938 c 2
 55 751.001953125 l 5
 214 751.001953125 l 5
 214 191.991210938 l 2
EndSplineSet
EndChar

StartChar: h
Encoding: 104 104 36
Width: 595
Flags: W
HStem: 0 21G<55 214 381.777 540.777> 380.284 130.649<250.688 358.686> 731.002 20G<55 214>
VStem: 55 159<0 751.002> 381.777 159<0 353.487>
LayerCount: 2
Fore
SplineSet
55 0 m 1
 55 751.001953125 l 5
 214 751.001953125 l 5
 214 0 l 1
 55 0 l 1
214 284 m 0
 149 293.561523438 l 0
 170.874026638 444 222.742126105 510.93359375 352 510.93359375 c 0
 476.666135504 510.93359375 540.77734375 444.084682028 540.77734375 304.561523438 c 2
 540.77734375 0 l 1
 381.77734375 0 l 1
 381.77734375 287.561523438 l 2
 381.77734375 346.298243276 357.098863291 380.284179688 299 380.284179688 c 0
 239.457003096 380.284179688 214 341.737146954 214 284 c 0
EndSplineSet
EndChar

StartChar: q
Encoding: 113 113 37
Width: 602
Flags: W
HStem: -180 21G<393 552> -9.99805 136.462<231.403 364.212> 375.284 135.649<230.238 354.365>
VStem: 38.0713 154.849<168.978 335.354> 393 159<-180 501.011> 393 67.8486<66.4394 183.562 283.562 425.747>
LayerCount: 2
Fore
SplineSet
552 -180 m 1xf8
 393 -180 l 1
 393 501.010742188 l 1
 552 501.010742188 l 1
 552 -180 l 1xf8
393 205.561523438 m 1
 460.848632812 183.561523438 l 1xf4
 460.848632812 66.4393843718 386.349745163 -9.998046875 263.959960938 -9.998046875 c 0
 123.543219098 -9.998046875 38.0712890625 94.0826581126 38.0712890625 253.561523438 c 0
 38.0712890625 409.296356709 119.759411379 510.93359375 262 510.93359375 c 0
 379.534336579 510.93359375 455.848632812 425.746590474 455.848632812 283.561523438 c 1
 393 275.561523438 l 1
 393 335.360564954 364.802215929 375.284179688 298.848632812 375.284179688 c 0
 224.644951549 375.284179688 192.919921875 326.552942321 192.919921875 253.561523438 c 0
 192.919921875 177.346966901 224.678293672 126.463867188 298.959960938 126.463867188 c 0
 364.835558052 126.463867188 393 167.025611795 393 205.561523438 c 1
EndSplineSet
EndChar

StartChar: g
Encoding: 103 103 38
Width: 602
Flags: W
HStem: -200 133<150.891 359.825> 10.002 125.462<231.403 361.26> 381.284 129.649<228.576 355.051>
VStem: 38.0713 154.849<177.16 343.451> 393 159<-32.326 37 213.562 501.011> 393 67.8486<90.3884 213.562 293.562 429.493>
LayerCount: 2
Fore
SplineSet
393 37 m 2xf8
 393 501.010742188 l 1
 552 501.010742188 l 1
 552 21 l 2
 552 -112.018957346 476.672413794 -200 295 -200 c 0
 160.812148676 -200 68 -157 68 -157 c 1
 102 -24 l 5
 102 -24 174.092538687 -67 275 -67 c 0
 358.078222656 -67 393 -35.6746987952 393 37 c 2xf8
393 225.561523438 m 1
 460.848632812 213.561523438 l 1xf4
 460.848632812 90.3884234776 386.349745163 10.001953125 263.959960938 10.001953125 c 0
 123.543219098 10.001953125 38.0712890625 110.133619007 38.0712890625 263.561523438 c 0
 38.0712890625 413.245395815 119.759411379 510.93359375 262 510.93359375 c 0
 379.534336579 510.93359375 455.848632812 429.493180948 455.848632812 293.561523438 c 1
 393 285.561523438 l 1
 393 342.961950887 361.604239313 381.284179688 294.848632812 381.284179688 c 0
 223.446974933 381.284179688 192.919921875 334.154328255 192.919921875 263.561523438 c 0
 192.919921875 186.747313384 224.678293672 135.463867188 298.959960938 135.463867188 c 0
 364.835558052 135.463867188 393 181.666476668 393 225.561523438 c 1
EndSplineSet
EndChar

StartChar: f
Encoding: 102 102 39
Width: 398
Flags: W
HStem: 0 21G<95 254> 373 128.011<14 382> 630.011 131<270.607 409.638>
VStem: 95 159<0 615.812>
LayerCount: 2
Fore
SplineSet
14 501.010742188 m 1
 382 501.010742188 l 1
 382 373 l 1
 14 373 l 1
 14 501.010742188 l 1
254 557.010742188 m 6
 254 0 l 1
 95 0 l 1
 95 570.010742188 l 2
 95 684.97265625 152.741210938 761.010742188 292 761.010742188 c 0
 368.84765625 761.010742188 422 745.010742188 422 745.010742188 c 1
 408 619.010742188 l 5
 408 619.010742188 374.662109375 630.010742188 328 630.010742188 c 4
 275.900390625 630.010742188 254 608.022460938 254 557.010742188 c 6
EndSplineSet
EndChar

StartChar: c
Encoding: 99 99 40
Width: 480
Flags: W
HStem: -9.99805 133.462<236.528 412.694> 375.284 135.649<231.922 390.747>
VStem: 35 154.849<170.326 331.105>
LayerCount: 2
Fore
SplineSet
35 253.561523438 m 0
 35 409.296356709 123.444972422 510.93359375 289.888671875 510.93359375 c 0
 415.885423315 510.93359375 467.681640625 450.704101562 467.681640625 450.704101562 c 1
 415.35546875 333.951171875 l 1
 415.35546875 333.951171875 380.556803239 375.284179688 310 375.284179688 c 0
 225.833264889 375.284179688 189.848632812 326.552942321 189.848632812 253.561523438 c 0
 189.848632812 175.54800635 226.997899382 123.463867188 313.888671875 123.463867188 c 0
 388.500896881 123.463867188 428.018554688 154.595703125 428.018554688 154.595703125 c 1
 460.827148438 28.595703125 l 1
 460.827148438 28.595703125 400.930581031 -9.998046875 296.888671875 -9.998046875 c 0
 126.093637825 -9.998046875 35 94.0826581131 35 253.561523438 c 0
EndSplineSet
EndChar

StartChar: t
Encoding: 116 116 41
Width: 412
Flags: W
HStem: -10 133<260.918 369.347> 373 128.011<14 382>
VStem: 95 159<132.999 651.011>
LayerCount: 2
Fore
SplineSet
14 501.010742188 m 1
 382 501.010742188 l 1
 382 373 l 1
 14 373 l 1
 14 501.010742188 l 1
254 176 m 2
 254 138.964094606 269.981366132 123 308 123 c 0
 342.996582031 123 368 134 368 134 c 1
 382 6 l 1
 382 6 341.113581731 -10 282 -10 c 0
 129.810185002 -10 95 58.075982698 95 161 c 2
 95 651.010742188 l 1
 254 671.010742188 l 1
 254 176 l 2
EndSplineSet
EndChar

StartChar: r
Encoding: 114 114 42
Width: 420
Flags: W
HStem: 0 21G<55 214> 371.284 139.649<240.29 395.143> 481.011 20G<55 214>
VStem: 55 159<0 501.011>
LayerCount: 2
Fore
SplineSet
332 510.93359375 m 0xd0
 398.157902644 510.93359375 417 484.93359375 417 484.93359375 c 1
 391 349.93359375 l 5
 391 349.93359375 358.151367188 371.284179688 308 371.284179688 c 0
 248.932617188 371.284179688 214 341.737146954 214 284 c 0
 149 293.561523438 l 0
 168.622288602 444 215.151024888 510.93359375 332 510.93359375 c 0xd0
55 0 m 1
 55 501.010742188 l 1
 214 501.010742188 l 1xb0
 214 0 l 1
 55 0 l 1
EndSplineSet
EndChar

StartChar: e
Encoding: 101 101 43
Width: 545
Flags: W
HStem: -9.99805 142.462<230.175 455.282> 201 105<137 368> 386.284 124.649<224.369 339.872>
VStem: 137 52.8486<201 306>
LayerCount: 2
Fore
SplineSet
35 253.561523438 m 0
 35 409.296356709 130.688210878 510.93359375 287.888671875 510.93359375 c 0
 475.622488302 510.93359375 520.465820312 367.439214907 520.465820312 269.7109375 c 0
 520.465820312 228.248604453 515 201 515 201 c 1
 137 201 l 1
 137 306 l 1
 368 306 l 1
 368 306 364.582352941 386.284179688 284 386.284179688 c 0
 218.046416883 386.284179688 189.848632812 336.752249355 189.848632812 262.561523438 c 0
 189.848632812 177.54800635 224.002957842 132.463867188 311 132.463867188 c 0
 404.650831733 132.463867188 458.018554688 160.595703125 458.018554688 160.595703125 c 1
 486.827148438 17.595703125 l 5
 486.827148438 17.595703125 419.988740381 -9.998046875 303.888671875 -9.998046875 c 0
 136.742303229 -9.998046875 35 94.0826581131 35 253.561523438 c 0
EndSplineSet
EndChar

StartChar: d
Encoding: 100 100 44
Width: 602
Flags: W
HStem: -9.99805 136.462<231.403 364.212> 0 21G<393 552> 375.284 135.649<230.238 354.365> 731.002 20G<393 552>
VStem: 38.0713 154.849<168.978 335.354> 393 159<183.562 751.002> 393 67.8486<66.4394 183.562 283.562 425.747>
LayerCount: 2
Fore
SplineSet
552 0 m 1x7c
 393 0 l 1x7a
 393 751.001953125 l 5
 552 751.001953125 l 5
 552 0 l 1x7c
393 205.561523438 m 1xbc
 460.848632812 183.561523438 l 1xba
 460.848632812 66.4393843718 386.349745163 -9.998046875 263.959960938 -9.998046875 c 0
 123.543219098 -9.998046875 38.0712890625 94.0826581126 38.0712890625 253.561523438 c 0
 38.0712890625 409.296356709 119.759411379 510.93359375 262 510.93359375 c 0
 379.534336579 510.93359375 455.848632812 425.746590474 455.848632812 283.561523438 c 1
 393 275.561523438 l 1
 393 335.360564954 364.802215929 375.284179688 298.848632812 375.284179688 c 0
 224.644951549 375.284179688 192.919921875 326.552942321 192.919921875 253.561523438 c 0
 192.919921875 177.346966901 224.678293672 126.463867188 298.959960938 126.463867188 c 0
 364.835558052 126.463867188 393 167.025611795 393 205.561523438 c 1xbc
EndSplineSet
EndChar

StartChar: b
Encoding: 98 98 45
Width: 602
Flags: W
HStem: -9.99805 136.462<242.444 375.597> 0 21G<55 214> 375.284 135.649<252.635 376.762> 731.002 20G<55 214>
VStem: 55 159<183.562 751.002> 126.151 87.8486<66.4394 183.562> 151.151 62.8486<283.562 425.747> 414.08 154.849<168.978 335.354>
LayerCount: 2
Fore
SplineSet
55 0 m 1x79
 55 751.001953125 l 5
 214 751.001953125 l 5x79
 214 0 l 1x73
 55 0 l 1x79
214 213.561523438 m 1
 214 171.128058975 242.164441948 126.463867188 308.040039062 126.463867188 c 0
 382.321706328 126.463867188 414.080078125 177.346966901 414.080078125 253.561523438 c 0
 414.080078125 326.552942322 382.355048451 375.284179688 308.151367188 375.284179688 c 0
 242.197784071 375.284179688 214 338.56333682 214 283.561523438 c 1xb9
 151.151367188 283.561523438 l 1xb3
 151.151367188 425.746590474 227.465663421 510.93359375 345 510.93359375 c 0
 487.240588621 510.93359375 568.928710938 409.296356709 568.928710938 253.561523438 c 0
 568.928710938 94.0826581128 483.456780902 -9.998046875 343.040039062 -9.998046875 c 0
 208.217870276 -9.998046875 126.151367188 66.4393843718 126.151367188 183.561523438 c 1xb5
 214 213.561523438 l 1
EndSplineSet
EndChar

StartChar: a
Encoding: 97 97 46
Width: 566
Flags: W
HStem: -9.99805 123.998<414.292 548.059> -9.99805 116.462<193.023 301.389> 214.284 95.6494<203.588 343.777> 382.011 129<140.887 306.109>
VStem: 30 154.849<116.168 196.864> 327.929 159<123.252 148 289.011 356.236> 327.929 49.8486<53.4076 150.562> 327.929 15.8486<214.284 309.934>
LayerCount: 2
Fore
SplineSet
327.928710938 177.561523438 m 1x79
 327.928710938 135 295.657692992 106.463867188 246.888671875 106.463867188 c 0
 203.42926183 106.463867188 184.848632812 127.320980654 184.848632812 158.561523438 c 0
 184.848632812 204.1737758 222.93827097 214.20023574 343.77734375 214.284179688 c 1x79
 343.928710938 309.93359375 l 5
 160.824693226 309.798279039 30 286.71747631 30 141 c 0
 30 50 93.5258452633 -9.998046875 197.888671875 -9.998046875 c 0
 319.880527421 -9.998046875 377.77734375 53.4075553226 377.77734375 150.561523438 c 1x7a
 327.928710938 177.561523438 l 1x79
327.928710938 289.010742188 m 2xbc
 327.928710938 125 l 2
 327.928710938 33 370.655983665 -9.998046875 457.928710938 -9.998046875 c 0
 524.438855865 -9.998046875 555.928710938 13 555.928710938 13 c 1
 546.928710938 121 l 1
 546.928710938 121 535.694039812 114 517.928710938 114 c 0
 495.36431245 114 486.928710938 123.251950046 486.928710938 148 c 2
 486.928710938 300.010742188 l 2
 486.928710938 427.01055301 421.85993516 511.010742188 264.928710938 511.010742188 c 0
 149.657226562 511.010742188 69.9287109375 467.010742188 69.9287109375 467.010742188 c 1
 112.928710938 346.010742188 l 1
 112.928710938 346.010742188 165.435888672 382.010742188 238.928710938 382.010742188 c 0
 301.589051943 382.010742188 327.928710938 353.998274294 327.928710938 289.010742188 c 2xbc
EndSplineSet
EndChar

StartChar: plus
Encoding: 43 43 47
Width: 450
Flags: W
HStem: 285 146<30 420>
VStem: 152 146<148 568>
LayerCount: 2
Fore
SplineSet
152 148 m 5
 152 568 l 1
 298 568 l 1
 298 148 l 5
 152 148 l 5
420 285 m 1
 30 285 l 1
 30 431 l 1
 420 431 l 1
 420 285 l 1
EndSplineSet
EndChar

StartChar: s
Encoding: 115 115 48
Width: 466
Flags: W
HStem: -9.99805 118.964<95.9773 278.301> 391.899 119.034<200.781 364.878>
VStem: 46.2041 149.504<326.347 384.725> 284.026 147.663<118.066 173.243>
LayerCount: 2
Fore
SplineSet
214.895507812 189.583984375 m 0
 82.5989926681 220.605367761 46.2041015625 271.703849969 46.2041015625 353 c 0
 46.2041015625 451.381835938 124.836914062 510.93359375 254.017578125 510.93359375 c 0
 361.87890625 510.93359375 414.334960938 473.225585938 414.334960938 473.225585938 c 1
 377.848632812 364.046875 l 1
 377.848632812 364.046875 329.534268048 391.899414062 258.3203125 391.899414062 c 0
 215.131168501 391.899414062 195.708007812 378.448242188 195.708007812 356.756835938 c 0
 195.708007812 336.290599196 208.864020193 323.681226536 253.366210938 312.091796875 c 4
 392.685035277 275.809859107 431.689453125 230.274042544 431.689453125 145.40234375 c 0
 431.689453125 49.630859375 358.982421875 -9.998046875 222.856445312 -9.998046875 c 0
 106.043945312 -9.998046875 32 26.5625 32 26.5625 c 1
 63.80859375 144.62890625 l 1
 63.80859375 144.62890625 129.859375 108.965820312 210.838867188 108.965820312 c 0
 260.420898438 108.965820312 284.026367188 121.625976562 284.026367188 146.182617188 c 0
 284.026367188 166.07642749 272.046132554 176.183091397 214.895507812 189.583984375 c 0
EndSplineSet
EndChar

StartChar: y
Encoding: 121 121 49
Width: 539
Flags: W
HStem: -179.994 21G<97 283.577> 481.011 20G<5 181.173 358.689 534>
LayerCount: 2
Fore
SplineSet
190 42 m 1
 5 501.010742188 l 1
 174 501.010742188 l 1
 275.606445312 217.694335938 l 1
 365 501.010742188 l 1
 534 501.010742188 l 1
 276 -179.994140625 l 1
 97 -179.994140625 l 5
 190 42 l 1
EndSplineSet
EndChar

StartChar: u
Encoding: 117 117 50
Width: 595
Flags: W
HStem: -9.92285 130.649<237.092 345.089> 0 21G<381.777 540.777> 481.011 20G<55 214 381.777 540.777>
VStem: 55 159<147.523 501.011> 381.777 159<207.449 501.011>
LayerCount: 2
Fore
SplineSet
381.77734375 217.010742188 m 4xb8
 446.77734375 207.44921875 l 4
 424.903317112 57.0107421877 373.035217645 -9.9228515625 243.77734375 -9.9228515625 c 4
 119.111208246 -9.9228515625 55 56.9260601597 55 196.44921875 c 6
 55 501.010742188 l 5
 214 501.010742188 l 5
 214 213.44921875 l 6
 214 154.712498912 238.678480459 120.7265625 296.77734375 120.7265625 c 4
 356.320340654 120.7265625 381.77734375 159.273595234 381.77734375 217.010742188 c 4xb8
540.77734375 501.010742188 m 5
 540.77734375 0 l 5
 381.77734375 0 l 5x78
 381.77734375 501.010742188 l 5
 540.77734375 501.010742188 l 5
EndSplineSet
EndChar

StartChar: backslash
Encoding: 92 92 51
Width: 434
Flags: W
LayerCount: 2
Fore
SplineSet
285 -171.469726562 m 5
 10 761.403320312 l 1
 149 761.403320312 l 1
 424 -171.469726562 l 5
 285 -171.469726562 l 5
EndSplineSet
EndChar

StartChar: equal
Encoding: 61 61 52
Width: 450
Flags: W
HStem: 215 116<30 420> 385 116<30 420>
LayerCount: 2
Back
SplineSet
420 285 m 5xea
 30 285 l 1
 30 431 l 1
 420 431 l 5
 420 285 l 5xea
EndSplineSet
Fore
SplineSet
420 215 m 1
 30 215 l 1
 30 331 l 1
 420 331 l 1
 420 215 l 1
420 385 m 5
 30 385 l 5
 30 501 l 5
 420 501 l 5
 420 385 l 5
EndSplineSet
EndChar

StartChar: v
Encoding: 118 118 53
Width: 539
Flags: W
HStem: 0 21G<168.214 380.387> 481.011 20G<5 179.687 359.782 534>
LayerCount: 2
Fore
SplineSet
175 0 m 1
 5 501.010742188 l 1
 174 501.010742188 l 1
 273.606445312 150.694335938 l 1
 365 501.010742188 l 5
 534 501.010742188 l 1
 374 0 l 1
 175 0 l 1
EndSplineSet
EndChar

StartChar: w
Encoding: 119 119 54
Width: 735
Flags: W
HStem: 0 21G<113.489 312.688 421.391 620.551> 481.011 20G<5 168.871 566.129 730>
LayerCount: 2
Fore
SplineSet
118 0 m 5
 5 501.010742188 l 1
 165 501.010742188 l 1
 226.606445312 182.694335938 l 5
 289 451.010742188 l 5
 446 451.010742188 l 5
 508.393554688 182.694335938 l 5
 570 501.010742188 l 5
 730 501.010742188 l 5
 616 0 l 5
 426 0 l 5
 367.5 253.841796875 l 5
 308 0 l 5
 118 0 l 5
EndSplineSet
EndChar

StartChar: x
Encoding: 120 120 55
Width: 528
Flags: W
HStem: 0 21G<5 198.846 329.154 523> 481.011 20G<15 201.095 326.905 513>
VStem: 231 66<201 291>
LayerCount: 2
Fore
SplineSet
188 0 m 1
 5 0 l 1
 165 262 l 1
 15 501.010742188 l 1
 191 501.010742188 l 1
 297 291 l 1
 297 201 l 1
 188 0 l 1
340 0 m 1
 231 201 l 1
 231 291 l 1
 337 501.010742188 l 1
 513 501.010742188 l 1
 363 262 l 1
 523 0 l 1
 340 0 l 1
EndSplineSet
EndChar

StartChar: z
Encoding: 122 122 56
Width: 478
Flags: W
HStem: 0 136<235 448> 365.011 136<40 243>
LayerCount: 2
Fore
SplineSet
448 0 m 5
 30 0 l 1
 30 96 l 1
 243 365.010742188 l 5
 40 365.010742188 l 1
 40 501.010742188 l 1
 438 501.010742188 l 5
 438 405.010742188 l 5
 235 136 l 1
 448 136 l 5
 448 0 l 5
EndSplineSet
EndChar

StartChar: period
Encoding: 46 46 57
Width: 245
Flags: W
HStem: -10 186.449<59.9887 185.237>
VStem: 30 185.227<20.1869 146.262>
LayerCount: 2
Fore
SplineSet
30 83.224609375 m 4
 30 139.701171875 66.505859375 176.44921875 122.612304688 176.44921875 c 4
 178.719726562 176.44921875 215.2265625 139.701171875 215.2265625 83.224609375 c 4
 215.2265625 26.7470703125 178.719726562 -10 122.612304688 -10 c 4
 66.505859375 -10 30 26.7470703125 30 83.224609375 c 4
EndSplineSet
EndChar

StartChar: two
Encoding: 50 50 58
Width: 608
Flags: W
HStem: 0 145<231.813 578.549> 589.599 149.394<170.099 374.78>
VStem: 404.676 166.086<447.003 561.881>
LayerCount: 2
Fore
SplineSet
404.67578125 514.05859375 m 0
 404.67578125 557 373.829101562 589.598632812 283.328125 589.598632812 c 0
 190.21484375 589.598632812 123.538085938 545.754882812 123.538085938 545.754882812 c 1
 72.322265625 685.796875 l 1
 72.322265625 685.796875 159.625976562 738.9921875 286.69140625 738.9921875 c 0
 463.827787286 738.9921875 570.76171875 662.295898438 570.76171875 522 c 0
 570.76171875 372.97439518 502.37064169 317.938859489 349.374023438 243.0234375 c 0
 234.010624634 186.535275852 231.813476562 145 231.813476562 145 c 1
 578.548828125 145 l 1
 578.548828125 0 l 1
 48 0 l 1
 48 54 l 2
 48 212.663475472 148.916049919 302.573379635 314.821289062 393.876953125 c 4
 386.347643745 433.240458552 404.67578125 464.674452541 404.67578125 514.05859375 c 0
EndSplineSet
EndChar

StartChar: three
Encoding: 51 51 59
Width: 579
Flags: W
HStem: -9.99805 144.938<125.575 345.247> 307 131.481<164.139 342.892> 589.599 149.394<130.469 337.139>
VStem: 364.984 164.086<461.159 563.662> 381.827 163.084<168.882 275.829>
LayerCount: 2
Fore
SplineSet
248.138671875 438.481445312 m 2xe8
 336.262570983 438.481445312 364.984375 463.76171875 364.984375 514.05859375 c 0
 364.984375 557 336.431808591 589.598632812 243.63671875 589.598632812 c 0
 150.5234375 589.598632812 93.8466796875 549.754882812 93.8466796875 549.754882812 c 1
 42.630859375 689.796875 l 1
 42.630859375 689.796875 115.934570312 738.9921875 243 738.9921875 c 0
 420.114195653 738.9921875 529.0703125 667.857421875 529.0703125 532.868164062 c 0xf0
 529.0703125 412 419.163085938 375.697265625 419.163085938 375.697265625 c 1
 419.163085938 375.697265625 544.911132812 341 544.911132812 205.670898438 c 0
 544.911132812 51.681640625 427.018800887 -9.998046875 250 -9.998046875 c 0
 102.934570312 -9.998046875 15.451171875 40.9091796875 15.451171875 40.9091796875 c 1
 62.7744140625 186.262695312 l 1
 62.7744140625 186.262695312 134.88671875 134.939453125 248 134.939453125 c 0
 340.576256296 134.939453125 381.827148438 166 381.827148438 222 c 0
 381.827148438 278.995117188 335.858092301 306.498046875 248.138671875 306.737304688 c 2
 164 307 l 1
 164.138671875 438.481445312 l 1
 248.138671875 438.481445312 l 2xe8
EndSplineSet
EndChar

StartChar: comma
Encoding: 44 44 61
Width: 252
Flags: W
HStem: -116 292.449
VStem: 30 192.227<23.0371 141.771>
LayerCount: 2
Fore
SplineSet
30 83.224609375 m 4
 30 139.701171875 66.505859375 176.44921875 122.612304688 176.44921875 c 4
 182.960455392 176.44921875 222.2265625 138.565881189 222.2265625 70 c 4
 222.2265625 -34.1590523958 128 -116 128 -116 c 5
 52 -73 l 5
 52 -73 92.7417677401 -41.2621873894 110.948586294 -9.44886765139 c 5
 61.4994641709 -4.67504230824 30 30.7624624416 30 83.224609375 c 4
EndSplineSet
EndChar

StartChar: zero
Encoding: 48 48 63
Width: 677
Flags: W
HStem: -9.99805 149.462<269.365 408.412> 589.659 149.462<269.365 408.412>
VStem: 35 159.849<228.734 500.389> 482.929 159.849<228.734 500.389>
LayerCount: 2
Fore
SplineSet
194.848632812 364.561523438 m 0
 194.848632812 229.580922261 237.987782464 139.463867188 338.888671875 139.463867188 c 4
 439.789561286 139.463867188 482.928710938 229.580922261 482.928710938 364.561523438 c 0
 482.928710938 499.542124612 439.789561286 589.659179688 338.888671875 589.659179688 c 0
 237.987782464 589.659179688 194.848632812 499.542124612 194.848632812 364.561523438 c 0
35 364.561523438 m 0
 35 591.206054688 149.985630246 739.12109375 338.888671875 739.12109375 c 0
 527.791713504 739.12109375 642.77734375 591.206054688 642.77734375 364.561523438 c 0
 642.77734375 137.916992188 527.791713504 -9.998046875 338.888671875 -9.998046875 c 0
 149.985630246 -9.998046875 35 137.916992188 35 364.561523438 c 0
EndSplineSet
EndChar

StartChar: one
Encoding: 49 49 64
Width: 424
Flags: W
HStem: 0 21G<200 369> 711 20G<180.363 369>
VStem: 200 169<0 560>
LayerCount: 2
Fore
SplineSet
369 731 m 5
 369 0 l 5
 200 0 l 5
 200 560 l 5
 70 497 l 5
 10 618 l 5
 217 731 l 5
 369 731 l 5
EndSplineSet
EndChar

StartChar: four
Encoding: 52 52 65
Width: 660
Flags: W
HStem: 0 21G<357 526> 162 136<211 630> 711 20G<349.221 526>
VStem: 357 169<0 501>
LayerCount: 2
Fore
SplineSet
526 731 m 1
 526 0 l 1
 357 0 l 1
 357 501 l 1
 211 298 l 1
 630 298 l 1
 630 162 l 5
 30 162 l 5
 30 279 l 1
 364 731 l 1
 526 731 l 1
EndSplineSet
EndChar

StartChar: exclam
Encoding: 33 33 66
Width: 274
Flags: W
HStem: -10 186.449<74.3754 199.624> 711.008 20G<60 218>
VStem: 44.3867 185.227<20.1869 146.262> 60 158<555.655 731.008> 80 118<230 405.353>
LayerCount: 2
Fore
SplineSet
80 230 m 1xc8
 60 731.0078125 l 1
 218 731.0078125 l 5xd0
 198 230 l 5
 80 230 l 1xc8
44.38671875 83.224609375 m 0xe0
 44.38671875 139.701171875 80.892578125 176.44921875 136.999023438 176.44921875 c 0
 193.106445312 176.44921875 229.61328125 139.701171875 229.61328125 83.224609375 c 0
 229.61328125 26.7470703125 193.106445312 -10 136.999023438 -10 c 0
 80.892578125 -10 44.38671875 26.7470703125 44.38671875 83.224609375 c 0xe0
EndSplineSet
EndChar

StartChar: five
Encoding: 53 53 67
Width: 597
Flags: W
HStem: -9.99805 148.893<122.512 353.519> 355.936 130.435<215.573 362.027> 577.841 153.167<211.805 514.672>
VStem: 399.845 162.982<181.328 319.293>
LayerCount: 2
Fore
SplineSet
267 -9.998046875 m 0
 109.275330082 -9.998046875 15.451171875 40.9091796875 15.451171875 40.9091796875 c 1
 57.7744140625 186.262695312 l 1
 57.7744140625 186.262695312 144.520789928 138.89453125 256 138.89453125 c 0
 359.910894922 138.89453125 399.844726562 181.159179688 399.844726562 249.576171875 c 0
 399.844726562 316.190463347 361.783466713 355.935546875 285 355.935546875 c 4
 198.05520802 355.935546875 174.65625 302.7890625 174.65625 302.7890625 c 1
 51.947265625 325.728515625 l 1
 84 731.0078125 l 1
 514.671875 731.0078125 l 1
 514.671875 577.840820312 l 1
 211.8046875 577.840820312 l 1
 200.470703125 454.322265625 l 1
 200.470703125 454.322265625 230.168280233 486.370117188 325.815429688 486.370117188 c 0
 479.072551319 486.370117188 562.827148438 399.458984375 562.827148438 254.497070312 c 0
 562.827148438 90.5595703125 463.190217433 -9.998046875 267 -9.998046875 c 0
EndSplineSet
EndChar

StartChar: six
Encoding: 54 54 68
Width: 640
Flags: W
HStem: -9.99805 137.889<254.99 407.416> 345.891 124.709<252.242 407.351> 586.52 152.473<279.971 481.303>
VStem: 35 178.398<191.513 445.19> 448.398 156.767<167.847 306.551>
LayerCount: 2
Fore
SplineSet
213.3984375 236.890625 m 0
 213.3984375 173.890625 247.578125 127.890625 330.3984375 127.890625 c 0
 413.926757812 127.890625 448.3984375 173.890625 448.3984375 236.890625 c 0
 448.3984375 299.890625 413.926757812 345.890625 330.3984375 345.890625 c 0
 247.578125 345.890625 213.3984375 299.890625 213.3984375 236.890625 c 0
203.303710938 419.747070312 m 1
 203.303710938 419.747070312 240.9375 470.599609375 358.263671875 470.599609375 c 0
 509.400390625 470.599609375 605.165039062 376.274414062 605.165039062 239 c 0
 605.165039062 79.095703125 501.138671875 -9.998046875 331.297851562 -9.998046875 c 0
 145.26171875 -9.998046875 35 99.6728515625 35 365.331054688 c 4
 35 605.528320312 152.618164062 738.9921875 364.297851562 738.9921875 c 0
 512.06640625 738.9921875 586.923828125 678.860351562 586.923828125 678.860351562 c 1
 529.619140625 537.388671875 l 1
 529.619140625 537.388671875 474.010742188 586.51953125 371.778320312 586.51953125 c 0
 263.982421875 586.51953125 209.4609375 527.876953125 203.303710938 419.747070312 c 1
EndSplineSet
EndChar

StartChar: parenright
Encoding: 41 41 69
Width: 402
Flags: W
HStem: -171.47 138.525<30 115.716> 620.944 138.525<30 115.716>
VStem: 215.448 156.679<104.655 483.345>
LayerCount: 2
Fore
SplineSet
30 -32.9443359375 m 5
 154.285528335 -32.9443359375 215.448242188 57.6396484375 215.448242188 294 c 0
 215.448242188 530.360351562 154.285528335 620.944335938 30 620.944335938 c 5
 30 759.469726562 l 1
 252.474637184 759.469726562 372.126953125 611.823242188 372.126953125 294 c 0
 372.126953125 -23.8232421875 252.474637184 -171.469726562 30 -171.469726562 c 1
 30 -32.9443359375 l 5
EndSplineSet
EndChar

StartChar: seven
Encoding: 55 55 70
Width: 604
Flags: W
HStem: 0 21G<143 318.433> 585 146<40 371>
VStem: 143 170<0 144.52>
LayerCount: 2
Fore
SplineSet
313 0 m 1
 143 0 l 1
 161.921161825 322 371 585 371 585 c 5
 40 585 l 1
 40 731 l 1
 564 731 l 1
 564 625 l 1
 564 625 323.865800866 356 313 0 c 1
EndSplineSet
EndChar

StartChar: eight
Encoding: 56 56 71
Width: 657
Flags: W
HStem: -9.99805 134.764<241.619 415.381> 316.397 128.664<268.929 391.156> 359.573 58.2568<160.432 499.822> 602.998 135.887<257.592 401.934>
VStem: 35 166.768<160.525 279.346> 70.2598 161.688<471.757 577.322> 430.052 161.688<472.459 576.623> 455.232 166.768<160.525 279.346>
LayerCount: 2
Fore
SplineSet
328.5 445.061523438 m 4xd6
 391.15625 445.061523438 430.051757812 475.51171875 430.051757812 523.869140625 c 4
 430.051757812 573.62109375 392.678710938 602.998046875 328.5 602.998046875 c 4
 267.481445312 602.998046875 231.948242188 573.62109375 231.948242188 523.869140625 c 4
 231.948242188 475.51171875 268.928710938 445.061523438 328.5 445.061523438 c 4xd6
328.5 738.884765625 m 4
 492.577148438 738.884765625 591.740234375 665.090820312 591.740234375 543.655273438 c 4
 591.740234375 424.0703125 499.822265625 359.573242188 328.5 359.573242188 c 4xb6
 160.431640625 359.573242188 70.259765625 424.0703125 70.259765625 543.655273438 c 4
 70.259765625 665.090820312 167.5390625 738.884765625 328.5 738.884765625 c 4
328.5 124.765625 m 4
 410.390625 124.765625 455.232421875 159.413085938 455.232421875 222.020507812 c 4
 455.232421875 279.740234375 410.408203125 316.397460938 328.5 316.397460938 c 4
 246.591796875 316.397460938 201.767578125 279.740234375 201.767578125 222.020507812 c 4xd9
 201.767578125 159.413085938 246.609375 124.765625 328.5 124.765625 c 4
328.5 417.830078125 m 4xb9
 517.833007812 417.830078125 622 343.268554688 622 208.381835938 c 4
 622 76.171875 506.540039062 -9.998046875 328.5 -9.998046875 c 4
 150.459960938 -9.998046875 35 76.171875 35 208.381835938 c 0
 35 343.268554688 139.166992188 417.830078125 328.5 417.830078125 c 4xb9
EndSplineSet
EndChar

StartChar: nine
Encoding: 57 57 72
Width: 640
Flags: W
HStem: -9.99805 152.473<158.862 360.195> 254.395 125.709<234.314 390.795> 598.104 140.889<234.249 390.49>
VStem: 35 159.767<420.367 559.647> 429.767 175.398<288.185 537.171>
LayerCount: 2
Fore
SplineSet
429.766601562 489.103515625 m 0
 429.766601562 552.103515625 395.586914062 598.103515625 312.766601562 598.103515625 c 0
 229.23828125 598.103515625 194.766601562 552.103515625 194.766601562 489.103515625 c 0
 194.766601562 426.103515625 229.23828125 380.103515625 312.766601562 380.103515625 c 0
 395.586914062 380.103515625 429.766601562 426.103515625 429.766601562 489.103515625 c 0
436.861328125 309.247070312 m 1
 436.861328125 309.247070312 399.227539062 254.39453125 281.901367188 254.39453125 c 4
 130.764648438 254.39453125 35 350.349609375 35 489.994140625 c 0
 35 649.8984375 139.026367188 738.9921875 308.8671875 738.9921875 c 0
 494.903320312 738.9921875 605.165039062 629.321289062 605.165039062 363.663085938 c 0
 605.165039062 123.465820312 487.546875 -9.998046875 275.8671875 -9.998046875 c 0
 128.098632812 -9.998046875 53.2412109375 50.1337890625 53.2412109375 50.1337890625 c 1
 110.545898438 191.60546875 l 1
 110.545898438 191.60546875 166.154296875 142.474609375 268.38671875 142.474609375 c 0
 376.182617188 142.474609375 430.704101562 201.1171875 436.861328125 309.247070312 c 1
EndSplineSet
EndChar

StartChar: question
Encoding: 63 63 73
Width: 566
Flags: W
HStem: -10 186.449<162.375 287.624> 299.594 112.455<202.29 334.913> 593.229 145.764<110.101 326.606>
VStem: 132.387 185.227<20.1869 146.262> 162.423 126.956<230 300.653> 368.096 163.774<442.877 555.25>
LayerCount: 2
Fore
SplineSet
132.38671875 83.224609375 m 0xf4
 132.38671875 139.701171875 168.892578125 176.44921875 224.999023438 176.44921875 c 0
 281.106445312 176.44921875 317.61328125 139.701171875 317.61328125 83.224609375 c 0
 317.61328125 26.7470703125 281.106445312 -10 224.999023438 -10 c 0
 168.892578125 -10 132.38671875 26.7470703125 132.38671875 83.224609375 c 0xf4
287.88671875 300.653320312 m 1
 289.37890625 230 l 1
 162.422851562 230 l 1xec
 164.15625 416.46875 l 1
 164.15625 416.46875 197.958984375 412.048828125 240.3984375 412.048828125 c 0
 326.76953125 412.048828125 368.095703125 442.455078125 368.095703125 499.145507812 c 4
 368.095703125 564.395507812 314.919921875 593.228515625 226.89453125 593.228515625 c 0
 140.24609375 593.228515625 66.923828125 553.958007812 66.923828125 553.958007812 c 1
 20.2412109375 695.311523438 l 1
 20.2412109375 695.311523438 101.0703125 738.9921875 229.89453125 738.9921875 c 0
 411.010742188 738.9921875 531.870117188 670 531.870117188 501.010742188 c 4
 531.870117188 365.010742188 434.206054688 299.59375 325 299.59375 c 0
 300.756835938 299.59375 287.88671875 300.653320312 287.88671875 300.653320312 c 1
EndSplineSet
EndChar

StartChar: hyphen
Encoding: 45 45 74
Width: 354
Flags: W
HStem: 209 141<30 324>
VStem: 30 294<209 350>
LayerCount: 2
Fore
SplineSet
324 209 m 5
 30 209 l 1
 30 350 l 1
 324 350 l 5
 324 209 l 5
EndSplineSet
EndChar

StartChar: quotesingle
Encoding: 39 39 75
Width: 266
Flags: W
HStem: 456 275.008<80 190>
VStem: 80 110<456 552.253>
LayerCount: 2
Fore
SplineSet
80 456 m 1
 60 731.0078125 l 1
 210 731.0078125 l 5
 190 456 l 5
 80 456 l 1
EndSplineSet
EndChar

StartChar: parenleft
Encoding: 40 40 77
Width: 402
Flags: W
HStem: -171.47 138.525<286.411 372.127> 620.944 138.525<286.411 372.127>
VStem: 30 156.679<104.655 483.345>
LayerCount: 2
Fore
SplineSet
372.126953125 -32.9443359375 m 5
 372.126953125 -171.469726562 l 5
 149.652315941 -171.469726562 30 -23.8232421875 30 294 c 4
 30 611.823242188 149.652315941 759.469726562 372.126953125 759.469726562 c 5
 372.126953125 620.944335938 l 5
 247.84142479 620.944335938 186.678710938 530.360351562 186.678710938 294 c 4
 186.678710938 57.6396484375 247.84142479 -32.9443359375 372.126953125 -32.9443359375 c 5
EndSplineSet
EndChar

StartChar: asterisk
Encoding: 42 42 78
Width: 404
Flags: W
LayerCount: 2
Fore
SplineSet
126.54296875 621.151367188 m 1
 65.5341796875 704.912109375 l 1
 162.685546875 761.001953125 l 1
 202.219726562 664.844726562 l 1
 241.75390625 761.001953125 l 5
 338.905273438 704.912109375 l 5
 277.896484375 621.151367188 l 1
 374.440429688 633.549804688 l 1
 374.440429688 521.369140625 l 1
 277.896484375 533.767578125 l 1
 338.905273438 450.006835938 l 5
 241.75390625 393.916992188 l 5
 202.219726562 490.075195312 l 1
 162.685546875 393.916992188 l 1
 65.5341796875 450.006835938 l 1
 126.54296875 533.767578125 l 1
 30 521.369140625 l 1
 30 633.549804688 l 1
 126.54296875 621.151367188 l 1
EndSplineSet
EndChar

StartChar: less
Encoding: 60 60 79
Width: 450
Flags: W
LayerCount: 2
Fore
SplineSet
420 155 m 5
 30 285 l 1
 30 431 l 1
 420 561 l 1
 420 415 l 1
 202.454101562 358 l 1
 420 301 l 5
 420 155 l 5
EndSplineSet
EndChar

StartChar: greater
Encoding: 62 62 80
Width: 450
Flags: W
LayerCount: 2
Fore
SplineSet
30 561 m 5
 420 431 l 1
 420 285 l 1
 30 155 l 1
 30 301 l 1
 247.545898438 358 l 1
 30 415 l 5
 30 561 l 5
EndSplineSet
EndChar

StartChar: slash
Encoding: 47 47 81
Width: 434
Flags: W
LayerCount: 2
Fore
SplineSet
10 -171.469726562 m 5
 285 761.403320312 l 5
 424 761.403320312 l 5
 149 -171.469726562 l 5
 10 -171.469726562 l 5
EndSplineSet
EndChar

StartChar: bar
Encoding: 124 124 82
Width: 249
Flags: W
VStem: 55 139<-171.47 759.47>
LayerCount: 2
Fore
SplineSet
55 -171.469726562 m 1
 55 759.469726562 l 1
 194 759.469726562 l 5
 194 -171.469726562 l 5
 55 -171.469726562 l 1
EndSplineSet
EndChar

StartChar: bracketleft
Encoding: 91 91 83
Width: 375
Flags: W
HStem: -171.47 126<204 345> 633.47 126<204 345>
VStem: 55 290<-171.47 -45.4697 633.47 759.47> 55 149<-45.4697 633.47>
LayerCount: 2
Fore
SplineSet
55 759.469726562 m 1xe0
 345 759.469726562 l 1
 345 633.469726562 l 1xe0
 204 633.469726562 l 1
 204 -45.4697265625 l 5xd0
 345 -45.4697265625 l 5
 345 -171.469726562 l 1
 55 -171.469726562 l 1
 55 759.469726562 l 1xe0
EndSplineSet
EndChar

StartChar: bracketright
Encoding: 93 93 84
Width: 375
Flags: W
HStem: -171.47 126<30 171> 633.47 126<30 171>
VStem: 30 290<-171.47 -45.4697 633.47 759.47> 171 149<-45.4697 633.47>
LayerCount: 2
Fore
SplineSet
320 -171.469726562 m 1xe0
 30 -171.469726562 l 1
 30 -45.4697265625 l 5xe0
 171 -45.4697265625 l 5
 171 633.469726562 l 1xd0
 30 633.469726562 l 1
 30 759.469726562 l 1
 320 759.469726562 l 1
 320 -171.469726562 l 1xe0
EndSplineSet
EndChar

StartChar: asciicircum
Encoding: 94 94 85
Width: 449
Flags: W
HStem: 440 291.008
LayerCount: 2
Fore
SplineSet
294 731.0078125 m 1
 444 440 l 1
 299 440 l 5
 225.393554688 620.313476562 l 1
 151 440 l 1
 5 440 l 1
 155 731.0078125 l 1
 294 731.0078125 l 1
EndSplineSet
EndChar

StartChar: braceleft
Encoding: 123 123 86
Width: 433
Flags: W
HStem: -171.47 123.996<285.043 396.538> 251.532 126<30 112.222> 635.474 123.996<284.95 396.617>
VStem: 120 149<-30.3793 243.118 385.28 618.379>
LayerCount: 2
Fore
SplineSet
208 314.532226562 m 1
 208 314.532226562 269 289.532226562 269 209.532226562 c 2
 269 24.5263671875 l 2
 269 -30.755859375 295.6015625 -47.4736328125 343 -47.4736328125 c 0
 386.443359375 -47.4736328125 396 -42.4736328125 396 -42.4736328125 c 1
 403 -161.469726562 l 1
 403 -161.469726562 366 -171.469726562 306 -171.469726562 c 0
 169.0625 -171.469726562 120 -108.43359375 120 -1.4697265625 c 2
 120 189.532226562 l 2
 120 236.860351562 101.501953125 251.532226562 65 251.532226562 c 2
 30 251.532226562 l 1
 30 377.532226562 l 1
 65 377.532226562 l 2
 101.501953125 377.532226562 120 392.205078125 120 439.532226562 c 2
 120 589.469726562 l 2
 120 696.430664062 169.0625 759.469726562 306 759.469726562 c 0
 360.75 759.469726562 403 749.469726562 403 749.469726562 c 1
 396 630.473632812 l 1
 396 630.473632812 379.180664062 635.473632812 342 635.473632812 c 0
 295.2421875 635.473632812 269 618.754882812 269 563.473632812 c 2
 269 419.532226562 l 2
 269 337.53515625 208 314.532226562 208 314.532226562 c 1
EndSplineSet
EndChar

StartChar: grave
Encoding: 96 96 87
Width: 242
Flags: W
HStem: 516 225.008
VStem: 1 240
LayerCount: 2
Fore
SplineSet
141 516 m 5
 1 711.0078125 l 1
 147 741.0078125 l 1
 241 536 l 5
 141 516 l 5
EndSplineSet
EndChar

StartChar: underscore
Encoding: 95 95 88
Width: 564
Flags: W
HStem: -111 111<30 534>
LayerCount: 2
Fore
SplineSet
534 -111 m 5
 30 -111 l 5
 30 0 l 1
 534 0 l 1
 534 -111 l 5
EndSplineSet
EndChar

StartChar: dollar
Encoding: 36 36 89
Width: 591
Flags: W
HStem: -105 174.47<225 364> -10 143.462<136.369 367.935> 594.659 144.462<234.673 440.132> 655 174.47<225 364>
VStem: 39.627 170.312<475.796 570.777> 225 139<-105 69.4697 655 829.47> 392.338 164.182<157.34 250.254>
LayerCount: 2
Fore
SplineSet
225 -105 m 1x8e
 225 69.4697265625 l 1
 364 69.4697265625 l 1
 364 -105 l 1
 225 -105 l 1x8e
225 655 m 1x1e
 225 829.469726562 l 1
 364 829.469726562 l 1
 364 655 l 1
 225 655 l 1x1e
EndSplineSet
Refer: 22 83 N 1 0 0 1 0 0 2
EndChar

StartChar: percent
Encoding: 37 37 90
Width: 953
Flags: W
HStem: -9.99805 116.78<671.575 773.627> 0 21G<191.48 342.382> 265.072 116.779<671.01 776.753> 347.143 116.779<180.945 282.627> 622.212 116.78<180.388 285.753> 711.008 20G<614.579 765.48>
VStem: 35 126.66<481.069 603.651> 303.41 124.55<483.945 603.078> 526 125.66<126.805 245.938> 794.41 124.55<126.805 245.938>
LayerCount: 2
Fore
SplineSet
651.66015625 186.481445312 m 0xa3c0
 651.66015625 129.305439744 683.528894898 106.782226562 722.48046875 106.782226562 c 0
 761.077082431 106.782226562 794.41015625 129.305439744 794.41015625 186.481445312 c 0
 794.41015625 244.115114367 761.077082431 265.072265625 722.48046875 265.072265625 c 0
 683.528894898 265.072265625 651.66015625 244.115114367 651.66015625 186.481445312 c 0xa3c0
526 186.481445312 m 0
 526 294.134219993 597.688680634 381.8515625 722.48046875 381.8515625 c 0
 847.271261196 381.8515625 918.959960938 294.134219993 918.959960938 186.481445312 c 0
 918.959960938 78.9489101654 847.271261196 -9.998046875 722.48046875 -9.998046875 c 0
 597.688680634 -9.998046875 526 78.9489101654 526 186.481445312 c 0
161.66015625 543.622070312 m 4
 161.66015625 486.446082777 193.078900574 463.921875 231.48046875 463.921875 c 4
 270.077082431 463.921875 303.41015625 486.446082777 303.41015625 543.622070312 c 4
 303.41015625 601.254756004 270.077082431 622.211914062 231.48046875 622.211914062 c 4x1bc0
 193.078900574 622.211914062 161.66015625 601.254756004 161.66015625 543.622070312 c 4
35 543.622070312 m 0
 35 651.274844993 106.688680634 738.9921875 231.48046875 738.9921875 c 0
 356.271261196 738.9921875 427.959960938 651.274844993 427.959960938 543.622070312 c 0
 427.959960938 436.089535165 356.271261196 347.142578125 231.48046875 347.142578125 c 0
 106.688680634 347.142578125 35 436.089535165 35 543.622070312 c 0
191.48046875 0 m 1x47c0
 626.48046875 731.0078125 l 1
 765.48046875 731.0078125 l 1
 330.48046875 0 l 1
 191.48046875 0 l 1x47c0
EndSplineSet
EndChar

StartChar: at
Encoding: 64 64 91
Width: 846
Flags: W
HStem: -120.297 106.144<325.203 604.204> 90.3359 108.867<361.013 467.906 618.724 692.737> 353.366 107.066<367.859 471.904> 563.762 104.535<307.126 554.718>
VStem: 35 111.978<156.482 402.277> 219.401 126.834<215.599 334.042> 486.984 128.093<229.954 328.326> 500.939 56.792<159.499 343.233> 705.379 106.246<207.421 424.098>
LayerCount: 2
Fore
SplineSet
346.235351562 269.50390625 m 0xfe80
 346.235351562 223.50164102 370.062333946 199.203125 415.176757812 199.203125 c 0
 460.526008497 199.203125 486.984375 229.95413357 486.984375 282.663085938 c 0
 486.984375 328.325520833 462.725215614 353.366210938 418.486328125 353.366210938 c 0
 372.808600008 353.366210938 346.235351562 322.522476831 346.235351562 269.50390625 c 0xfe80
394.448242188 90.3359375 m 0
 289.655305413 90.3359375 219.401367188 159.683598174 219.401367188 263.125 c 0
 219.401367188 380.058330487 298.595087935 460.432617188 402.423828125 460.432617188 c 0
 508.327641785 460.432617188 557.731445312 390.61400526 557.731445312 257.888671875 c 0xfd80
 557.731445312 159.498551568 490.331628177 90.3359375 394.448242188 90.3359375 c 0
446.55859375 -120.296875 m 0
 191.725572288 -120.296875 35 38.1921226874 35 268.626953125 c 0
 35 501.310792569 195.668767338 668.296875 427.201171875 668.296875 c 0
 651.634516641 668.296875 811.625 535.254417708 811.625 317.546875 c 0
 811.625 180.530786306 749.153491915 91.0078125 640.115234375 91.0078125 c 0
 552.858406317 91.0078125 500.939453125 134.893038392 500.939453125 232.255859375 c 0xfd80
 500.939453125 343.233075894 519.1484375 458.05859375 519.1484375 458.05859375 c 1
 628.072265625 458.05859375 l 1
 628.072265625 458.05859375 615.077148438 340.522634753 615.077148438 240.206054688 c 0xfe80
 615.077148438 209 627.631543199 192.53125 651.3125 192.53125 c 4
 686.913631672 192.53125 705.37890625 218.04985293 705.37890625 314.065429688 c 0
 705.37890625 473.648612878 598.284369966 563.76171875 424.077148438 563.76171875 c 0
 254.457354599 563.76171875 146.977539062 452.395147291 146.977539062 278.990234375 c 0
 146.977539062 96.8346564192 254.198509289 -14.1533203125 464.708984375 -14.1533203125 c 0
 609.556583245 -14.1533203125 700.103515625 50.8701171875 700.103515625 50.8701171875 c 1
 735.228515625 -40.7509765625 l 1
 735.228515625 -40.7509765625 640.458984375 -120.296875 446.55859375 -120.296875 c 0
EndSplineSet
EndChar

StartChar: numbersign
Encoding: 35 35 92
Width: 767
Flags: W
HStem: 0 21G<96.5 240.014 366.5 510.014> 174 121<35 697> 419 121<70 732> 711.008 20G<256.986 400.5 526.986 670.5>
LayerCount: 2
Fore
SplineSet
70 540 m 1
 732 540 l 1
 732 419 l 1
 70 419 l 1
 70 540 l 1
35 295 m 1
 697 295 l 1
 697 174 l 1
 35 174 l 1
 35 295 l 1
366.5 0 m 1
 531.5 731.0078125 l 1
 670.5 731.0078125 l 1
 505.5 0 l 1
 366.5 0 l 1
96.5 0 m 1
 261.5 731.0078125 l 1
 400.5 731.0078125 l 1
 235.5 0 l 1
 96.5 0 l 1
EndSplineSet
EndChar

StartChar: braceright
Encoding: 125 125 93
Width: 433
Flags: W
HStem: -171.47 123.996<36.4621 147.957> 251.532 126<320.778 403> 635.474 123.996<36.3831 148.05>
VStem: 164 149<-30.3793 243.118 385.28 618.379>
LayerCount: 2
Fore
SplineSet
225 314.532226562 m 1
 225 314.532226562 164 337.53515625 164 419.532226562 c 2
 164 563.473632812 l 2
 164 618.754882812 137.7578125 635.473632812 91 635.473632812 c 0
 53.8193359375 635.473632812 37 630.473632812 37 630.473632812 c 1
 30 749.469726562 l 1
 30 749.469726562 72.25 759.469726562 127 759.469726562 c 0
 263.9375 759.469726562 313 696.430664062 313 589.469726562 c 2
 313 439.532226562 l 2
 313 392.205078125 331.498046875 377.532226562 368 377.532226562 c 2
 403 377.532226562 l 1
 403 251.532226562 l 1
 368 251.532226562 l 2
 331.498046875 251.532226562 313 236.860351562 313 189.532226562 c 2
 313 -1.4697265625 l 2
 313 -108.43359375 263.9375 -171.469726562 127 -171.469726562 c 0
 67 -171.469726562 30 -161.469726562 30 -161.469726562 c 1
 37 -42.4736328125 l 1
 37 -42.4736328125 46.556640625 -47.4736328125 90 -47.4736328125 c 0
 137.3984375 -47.4736328125 164 -30.755859375 164 24.5263671875 c 2
 164 209.532226562 l 2
 164 289.532226562 225 314.532226562 225 314.532226562 c 1
EndSplineSet
EndChar

StartChar: asciitilde
Encoding: 126 126 94
Width: 439
VWidth: 999
Flags: W
HStem: 277 130<231.151 353.822> 326 129<70.5041 204.877>
LayerCount: 2
Fore
SplineSet
431 355 m 5x80
 431 355 379.06557377 277 299 277 c 4x80
 221.461538462 277 195.615384615 326 139 326 c 4
 101 326 70 292 70 292 c 5
 5 395 l 5
 5 395 62.3442622951 455 137 455 c 4x40
 213.307692308 455 245.307692308 407 297 407 c 4
 340 407 362 437 362 437 c 5
 431 355 l 5x80
EndSplineSet
EndChar
